<?xml version="1.0" standalone="no"?>
<!DOCTYPE svg PUBLIC "-//W3C//DTD SVG 20010904//EN"
 "http://www.w3.org/TR/2001/REC-SVG-20010904/DTD/svg10.dtd">
<svg version="1.0" xmlns="http://www.w3.org/2000/svg"
 width="200px" height="200px" viewBox="0 0 471 471"
 preserveAspectRatio="xMidYMid meet">

<g transform="translate(0.000000,471.000000) scale(0.100000,-0.100000)"
fill="#000000" stroke="none">
<path d="M2130 4575 c-72 -31 -54 -32 35 0 40 14 59 24 45 24 -14 0 -50 -11
-80 -24z"/>
<path d="M2050 4539 c0 -5 5 -7 10 -4 6 3 10 8 10 11 0 2 -4 4 -10 4 -5 0 -10
-5 -10 -11z"/>
<path d="M2595 4525 c17 -14 29 -30 27 -36 -1 -6 2 -8 7 -5 5 3 11 -1 15 -9 3
-8 11 -15 19 -15 11 0 77 -65 77 -76 0 -2 17 -20 37 -39 20 -19 33 -35 28 -35
-6 0 -5 -4 0 -8 24 -16 53 -70 69 -129 12 -46 16 -89 12 -175 -2 -62 -1 -106
2 -98 9 23 31 -146 31 -235 0 -153 -30 -340 -67 -425 -22 -50 -90 -147 -109
-154 -6 -3 -25 0 -42 7 -23 8 -31 18 -31 37 -1 44 -53 90 -105 90 -16 0 -49 9
-73 20 -37 17 -42 22 -36 44 7 28 -3 66 -16 66 -5 0 -7 -6 -4 -13 10 -28 -20
-38 -70 -25 -54 14 -77 5 -86 -33 -4 -17 -15 -26 -35 -30 l-30 -6 27 -7 c14
-4 34 -4 45 1 26 13 58 10 57 -4 -1 -7 -2 -22 -2 -34 -2 -21 -2 -21 -20 2 -13
15 -21 19 -26 11 -4 -7 -5 -12 -1 -12 3 0 1 -9 -5 -21 -9 -16 -8 -25 6 -40 9
-10 23 -19 31 -19 7 0 16 -7 19 -15 4 -8 15 -15 26 -15 13 0 18 -5 15 -14 -4
-10 8 -15 46 -19 59 -7 94 -1 119 21 16 13 22 12 62 -9 25 -13 49 -33 54 -45
9 -18 4 -26 -29 -55 -21 -18 -39 -38 -39 -44 0 -5 -13 -25 -29 -44 -30 -36
-30 -36 -141 -6 -8 2 -19 4 -24 4 -4 1 -5 8 -2 17 3 8 2 12 -4 9 -6 -3 -20 1
-31 9 -22 15 -21 15 12 29 32 13 28 14 -71 13 -58 -1 -118 3 -133 7 -17 4 -26
4 -23 -1 3 -5 26 -15 51 -22 45 -13 61 -30 27 -30 -20 0 -65 -44 -77 -75 -4
-11 -9 -37 -11 -58 -2 -21 -13 -51 -24 -68 -36 -49 -42 -32 -10 25 l31 55 -33
15 c-37 18 -46 31 -95 128 -51 104 -48 108 75 108 l77 0 46 44 c52 50 67 96
37 115 -25 15 -35 14 -42 -6 -6 -21 -25 -51 -45 -72 -12 -13 -13 -12 -6 9 4
14 16 37 26 52 25 35 24 46 -6 54 -26 6 -34 29 -12 37 6 2 20 0 30 -5 10 -5
22 -7 25 -3 10 9 -36 45 -58 45 -19 0 -45 -33 -51 -65 -3 -12 -33 -34 -82 -60
-72 -37 -81 -45 -110 -100 -18 -33 -40 -61 -50 -63 -26 -5 -73 51 -97 116 -11
31 -25 66 -30 77 -6 11 -24 96 -40 189 -16 92 -32 171 -36 175 -3 3 -4 -30 0
-74 3 -44 9 -132 11 -195 5 -106 23 -245 46 -363 5 -26 9 -81 9 -122 0 -51 6
-90 20 -126 12 -29 19 -58 16 -65 -6 -15 17 -99 38 -141 9 -17 28 -38 42 -47
13 -10 39 -39 55 -67 20 -32 53 -64 92 -91 l61 -41 -43 -39 -44 -38 38 0 c32
0 36 -2 25 -15 -7 -8 -18 -15 -25 -15 -7 0 -27 -16 -44 -36 -23 -26 -30 -42
-26 -57 10 -35 99 -113 161 -141 79 -36 99 -33 28 5 -85 44 -107 67 -100 103
10 49 55 138 66 131 5 -3 10 -13 10 -21 0 -8 3 -14 8 -14 4 0 16 -19 26 -42
23 -53 73 -118 92 -118 8 0 14 -4 14 -10 0 -5 5 -10 11 -10 15 0 3 33 -33 90
-17 27 -27 53 -24 58 7 11 46 4 46 -8 0 -6 53 -19 140 -33 14 -3 34 -8 45 -12
17 -6 18 -5 5 5 -13 10 -12 11 5 5 11 -4 29 -9 40 -12 11 -3 27 -7 35 -10 8
-3 42 -7 75 -9 33 -1 61 -8 63 -14 3 -8 8 -8 18 1 22 18 16 -3 -9 -33 -12 -15
-49 -43 -82 -62 -77 -46 -59 -46 27 -1 49 26 80 53 120 101 29 36 84 91 121
122 76 62 148 149 177 214 27 63 56 185 79 338 28 186 17 221 -74 240 -34 7
-32 -15 -21 213 6 120 9 133 38 185 18 32 42 71 55 88 24 32 30 87 13 114 -7
11 -10 1 -10 -36 0 -27 -6 -59 -14 -69 -13 -18 -14 -18 -24 1 -5 10 -13 43
-17 71 -4 29 -11 55 -16 59 -16 10 -9 24 12 24 26 0 89 64 89 90 0 10 -10 26
-22 34 -20 14 -22 14 -33 -7 -18 -35 -64 -77 -71 -66 -3 6 -1 61 6 123 11 101
10 123 -9 231 -24 144 -47 215 -92 291 -60 101 -197 224 -309 278 l-35 17 30
-26z m-200 -1772 c-9 -37 -18 -20 -9 19 4 18 9 27 11 20 3 -7 2 -24 -2 -39z
m-317 -130 c0 -10 -2 -40 -5 -68 -4 -38 -8 -45 -14 -30 -10 25 -11 99 -2 108
11 12 20 8 21 -10z m434 -335 c-7 -7 -12 -8 -12 -2 0 6 3 14 7 17 3 4 9 5 12
2 2 -3 -1 -11 -7 -17z"/>
<path d="M2670 4431 c0 -5 5 -13 10 -16 6 -3 10 -2 10 4 0 5 -4 13 -10 16 -5
3 -10 2 -10 -4z"/>
<path d="M2394 3861 c-37 -17 -62 -46 -50 -59 13 -12 107 -14 183 -2 76 11 92
11 144 -5 33 -10 62 -15 65 -12 13 13 -7 38 -53 67 -44 28 -53 30 -147 30 -77
0 -111 -5 -142 -19z"/>
<path d="M1871 3835 c-53 -17 -121 -80 -121 -112 0 -27 12 -30 31 -7 25 30 71
45 172 54 56 5 110 9 120 10 28 0 19 29 -15 50 -39 24 -120 26 -187 5z"/>
<path d="M2419 3745 c-24 -13 -59 -55 -59 -71 0 -3 16 8 35 25 20 17 47 34 60
37 14 3 25 10 25 15 0 13 -31 10 -61 -6z"/>
<path d="M2530 3740 c-47 -9 -95 -35 -114 -62 -24 -33 -19 -45 5 -14 24 31 45
34 52 6 4 -17 14 -20 56 -20 45 0 53 3 63 25 14 30 28 32 35 5 6 -24 12 -25
41 -4 28 20 28 30 -2 50 -28 18 -84 24 -136 14z m10 -50 c0 -5 -4 -10 -10 -10
-5 0 -10 5 -10 10 0 6 5 10 10 10 6 0 10 -4 10 -10z"/>
<path d="M1938 3723 c-26 -8 -62 -28 -80 -44 -32 -27 -33 -28 -18 -56 9 -17
26 -29 40 -31 24 -3 25 -3 5 12 -20 15 -20 15 2 37 l22 23 10 -26 c13 -35 25
-41 72 -33 30 5 43 13 49 31 10 26 19 29 38 14 7 -5 1 2 -13 18 -23 24 -32 27
-85 26 -37 -1 -69 -7 -85 -18 -14 -9 -25 -13 -25 -8 0 15 58 42 102 48 34 4
53 0 91 -20 53 -29 65 -19 15 12 -48 29 -87 33 -140 15z m52 -67 c0 -3 -4 -8
-10 -11 -5 -3 -10 -1 -10 4 0 6 5 11 10 11 6 0 10 -2 10 -4z"/>
<path d="M2100 3711 c19 -16 37 -27 40 -24 7 7 -48 53 -63 53 -7 0 4 -14 23
-29z"/>
<path d="M2336 3732 c-3 -5 -10 -22 -16 -38 l-11 -29 27 28 c18 19 23 32 16
39 -6 6 -12 6 -16 0z"/>
<path d="M1555 3540 c-3 -5 1 -10 9 -10 8 0 18 5 21 10 3 6 -1 10 -9 10 -8 0
-18 -4 -21 -10z"/>
<path d="M2278 3083 c-21 -2 -38 -8 -38 -12 0 -9 87 2 97 12 3 4 0 6 -8 5 -8
-1 -31 -3 -51 -5z"/>
<path d="M2270 3050 c0 -12 40 -13 58 -1 8 5 0 8 -23 9 -19 1 -35 -3 -35 -8z"/>
<path d="M3690 2370 c-12 -8 -9 -10 12 -10 15 0 30 5 33 10 8 13 -25 13 -45 0z"/>
<path d="M3594 2318 c-145 -88 -273 -187 -388 -302 -113 -113 -122 -120 -205
-153 -47 -18 -108 -45 -136 -58 -27 -14 -87 -39 -132 -55 -114 -43 -129 -56
-137 -127 -3 -32 -8 -74 -11 -93 -3 -24 3 -14 18 30 12 36 27 72 32 81 10 16
112 71 185 99 19 8 52 25 72 38 21 13 84 42 140 63 65 25 115 51 138 72 19 18
94 89 165 157 116 111 218 199 310 267 47 35 25 27 -51 -19z"/>
<path d="M1715 2034 c-27 -26 -76 -70 -107 -99 l-57 -52 -41 18 c-86 39 -316
17 -427 -39 -21 -11 -54 -38 -74 -60 -23 -25 -52 -45 -78 -53 -33 -10 -55 -28
-109 -93 -154 -185 -202 -255 -202 -293 0 -13 7 -37 15 -53 20 -39 43 -107 70
-212 26 -100 45 -128 85 -128 44 0 121 60 150 115 35 68 39 164 11 239 -22 60
-27 96 -12 96 24 0 60 -44 70 -85 6 -26 17 -134 23 -241 10 -190 10 -196 -10
-217 -29 -32 -125 -193 -162 -273 -18 -38 -40 -102 -51 -142 -20 -80 -24 -192
-6 -192 6 0 3 -6 -7 -13 -10 -7 -19 -28 -21 -45 -1 -18 -5 -35 -9 -39 -9 -9
-8 -43 2 -41 4 0 15 -2 24 -6 15 -7 118 18 185 45 26 10 42 -6 24 -24 -6 -6
-11 -8 -11 -4 0 13 -66 -20 -149 -74 -44 -29 -81 -57 -81 -61 0 -4 276 -8 613
-8 l614 0 -1 148 c-1 145 0 148 30 207 26 52 102 161 142 203 7 8 25 37 40 66
26 49 27 57 27 198 -1 132 -3 151 -21 175 -12 15 -32 28 -49 30 -52 7 -295
-42 -295 -59 0 -4 -6 -8 -14 -8 -8 0 -30 -25 -50 -55 -20 -30 -41 -57 -46 -60
-6 -4 -19 -24 -31 -46 -12 -25 -24 -37 -32 -33 -9 5 -9 3 1 -7 13 -15 16 -29
5 -29 -5 0 -22 13 -39 28 -18 15 -44 37 -59 50 -15 13 -24 29 -21 38 3 8 13
100 23 204 9 105 20 190 23 190 3 0 12 -17 19 -37 34 -98 114 -173 184 -173
74 0 124 79 182 290 40 146 55 174 111 205 27 15 71 40 97 56 27 16 53 29 58
29 21 0 102 59 119 88 11 18 17 32 14 32 -3 0 -91 -43 -196 -96 l-190 -97 -51
50 c-29 27 -81 74 -117 103 -36 30 -88 75 -116 101 -40 37 -62 49 -107 59 -31
6 -57 16 -57 21 0 5 14 21 32 36 97 83 185 175 166 173 -2 0 -25 -21 -53 -46z
m-615 -468 c0 -3 -4 -8 -10 -11 -5 -3 -10 -1 -10 4 0 6 5 11 10 11 6 0 10 -2
10 -4z"/>
<path d="M1817 1963 c-31 -70 -42 -113 -30 -113 13 0 52 84 59 130 4 22 4 40
2 40 -3 0 -17 -26 -31 -57z"/>
<path d="M2477 1681 c-20 -5 -40 -11 -44 -15 -14 -14 23 -26 72 -24 42 3 50 6
50 23 0 23 -20 27 -78 16z"/>
<path d="M2571 1474 c0 -11 3 -14 6 -6 3 7 2 16 -1 19 -3 4 -6 -2 -5 -13z"/>
<path d="M3870 1246 c0 -15 32 -130 42 -149 18 -35 18 -11 -1 55 -18 62 -40
114 -41 94z"/>
<path d="M4371 754 c-66 -59 -215 -245 -247 -306 -25 -49 -55 -73 -80 -64 -19
7 -61 99 -68 149 -16 106 -18 111 -26 97 -22 -36 -20 -126 5 -240 14 -63 32
-167 41 -230 9 -63 18 -125 20 -137 4 -21 10 -23 73 -23 l69 0 6 43 c11 72 10
89 -18 191 -14 54 -26 112 -26 128 0 38 27 89 87 163 26 33 67 85 90 116 23
31 64 79 92 108 62 64 51 67 -18 5z"/>
<path d="M4651 731 c-19 -5 -27 -18 -42 -76 -10 -38 -16 -71 -14 -74 9 -8 65
22 70 38 11 36 22 112 16 115 -3 1 -17 0 -30 -3z"/>
<path d="M3274 609 c-8 -14 11 -33 25 -25 16 10 13 36 -3 36 -8 0 -18 -5 -22
-11z"/>
<path d="M3354 588 c-3 -5 -4 -11 -2 -14 3 -2 65 -9 139 -14 74 -6 145 -13
158 -16 21 -4 23 -3 12 10 -7 8 -27 19 -44 25 -45 13 -256 21 -263 9z"/>
<path d="M3699 516 c20 -24 99 -49 137 -42 18 4 34 11 34 15 0 14 -42 21 -61
10 -13 -7 -27 -4 -51 11 -39 24 -77 28 -59 6z"/>
<path d="M4504 114 c-18 -14 -18 -15 4 -4 12 6 22 13 22 15 0 8 -5 6 -26 -11z"/>
</g>
</svg>
